HIERARCHY
ROOT pelvis
{
  OFFSET 0 100 0
  CHANNELS 6 Xposition Yposition Zposition Zrotation Xrotation Yrotation
  JOINT pelvis_right_femur
  {
    OFFSET -10.78128 -3.44521 -0.5502486
    CHANNELS 3 Zrotation Xrotation Yrotation
    JOINT right_femur_tibia
    {
      OFFSET -0.8047443 -44.0398 -0.1307829
      CHANNELS 3 Zrotation Xrotation Yrotation
      JOINT right_tibia_foot
      {
        OFFSET 3.006224 -47.83518 -5
        CHANNELS 3 Zrotation Xrotation Yrotation
        End Site
        {
          OFFSET 0 -5 15
        }
      }
    }
  }
  JOINT pelvis_left_femur
  {
    OFFSET 10.78128 -3.44521 -0.5502486
    CHANNELS 3 Zrotation Xrotation Yrotation
    JOINT left_femur_tibia
    {
      OFFSET 0.8047443 -44.0398 -0.1307829
      CHANNELS 3 Zrotation Xrotation Yrotation
      JOINT left_tibia_foot
      {
        OFFSET -4.370144 -48.10324 -4.275266
        CHANNELS 3 Zrotation Xrotation Yrotation
        End Site
        {
          OFFSET 0 -5 15
        }
      }
    }
  }
  JOINT pelvis_spine1
  {
    OFFSET 0 6.468898 -3.129235
    CHANNELS 3 Zrotation Xrotation Yrotation
    JOINT spine1
    {
      OFFSET 0 23.15396 4.99043
      CHANNELS 3 Zrotation Xrotation Yrotation
      JOINT spine2
      {
        OFFSET 0 20.79997 -5.064912
        CHANNELS 3 Zrotation Xrotation Yrotation
        JOINT neck
        {
          OFFSET 0 14.38658 9.616178
          CHANNELS 3 Zrotation Xrotation Yrotation
          End Site
          {
            OFFSET 0 20 0
          }
        }
      }
      JOINT right_manubrium
      {
        OFFSET -5.722621 16.35077 3.967754
        CHANNELS 3 Zrotation Xrotation Yrotation
        JOINT right_clavicle
        {
          OFFSET -13.16364 1.694482 -4.693211
          CHANNELS 3 Zrotation Xrotation Yrotation
          JOINT right_humerus
          {
            OFFSET -28.5034 -0.3100689 -2.792744
            CHANNELS 3 Zrotation Xrotation Yrotation
            JOINT right_radius
            {
              OFFSET -25.15693 0.02248979 -1.271978
              CHANNELS 3 Zrotation Xrotation Yrotation
              End Site
              {
                OFFSET -15 0 0
              }
            }
          }
        }
      }
      JOINT left_manubrium
      {
        OFFSET 5.722621 16.35077 3.967754
        CHANNELS 3 Zrotation Xrotation Yrotation
        JOINT left_clavicle
        {
          OFFSET 13.16364 1.694482 -4.693211
          CHANNELS 3 Zrotation Xrotation Yrotation
          JOINT left_humerus
          {
            OFFSET 29.39168 -1.063119 -2.237045
            CHANNELS 3 Zrotation Xrotation Yrotation
            JOINT left_radius
            {
              OFFSET 24.59957 -0.9528479 0.9047498
              CHANNELS 3 Zrotation Xrotation Yrotation
              End Site
              {
                OFFSET 15 -0 -0
              }
            }
          }
        }
      }
    }
  }
}
MOTION
Frames: 19
Frame Time: 0.0416666666667
0 103.5113 0 0.6034319 -2.135645 -0.04043088 3.97701 -16.77671 8.278612 -0 36.93595 -0 -6.474765 -15.50567 -4.350921 -6.288304 12.47213 -22.85932 -0 5.54116 -0 7.324856 -17.5371 25.90671 -1.38873 -2.864798 4.846907 2.370995 11.36895 -7.373171 1.40211 22.2949 5.69881 2.997189 -23.00912 7.999922 5.002479 -19.71706 12.51468 84.70423 30.02438 -17.3312 -0 0 16.75708 -12.52802 11.37636 5.192719 6.706439 -21.10159 -1.492765 -95.35125 21.22838 23.18827 0 0 -7.968507 14.05696 18.93493 -5.132824
0.2209723 103.3062 1.661496 0.6050896 -1.289138 -0.05887965 4.189057 -19.24237 8.426881 -0 35.70541 -0 -5.782904 -15.35923 -4.090694 -6.463774 12.84804 -22.909 -0 5.2607 -0 6.8927 -18.79755 25.60176 -1.475058 -2.680911 4.719269 2.482744 11.16071 -7.452473 1.334935 22.08897 6.013486 3.141436 -23.40664 8.197588 5.049948 -19.37058 12.40523 84.98412 30.76935 -17.69231 -0 0 15.8639 -12.239 11.10404 5.326531 6.811655 -21.18321 -1.43726 -94.62433 21.14046 22.27629 0 0 -9.496946 14.17815 18.03301 -4.945056
0.4421517 102.9065 3.523189 0.5529193 -0.4506993 -0.01628874 4.427775 -22.58394 7.723585 -0 32.24811 -0 -5.436928 -13.54146 -3.476047 -6.620532 13.30214 -22.17024 -0 5.483287 -0 6.313852 -20.48903 24.81748 -1.488538 -2.665619 4.672323 2.608488 10.87468 -7.563419 1.33437 21.80954 6.237508 3.194589 -23.99142 8.518178 5.164357 -19.29079 12.26647 85.30937 31.57605 -18.35185 -0 0 15.62181 -11.13904 10.72009 4.931967 6.874973 -21.1178 -1.356643 -94.44268 21.65017 22.10876 0 0 -11.05013 13.88041 17.56076 -4.193273
0.6686545 102.3177 5.651287 0.4280606 0.3747023 0.1016284 4.788181 -25.7339 7.00214 -0 28.59208 -0 -5.237521 -11.83764 -2.931995 -6.669728 13.61884 -21.23259 -0 5.729706 -0 6.161204 -21.72242 23.95899 -1.539859 -2.56053 4.585902 2.738053 10.61602 -7.670596 1.299494 21.5219 6.512716 3.286432 -24.51726 8.792404 5.229311 -19.09515 12.12923 85.65589 32.40333 -18.88155 -0 0 15.03963 -10.41331 10.4062 4.839403 6.949697 -21.13445 -1.289821 -93.88746 21.81293 21.51101 0 0 -12.79158 13.80729 16.75994 -3.692154
0.9043904 101.5498 8.16952 0.2035061 1.285089 0.3153429 5.268622 -28.92251 6.17051 -0 24.47255 -0 -5.193239 -9.903114 -2.370926 -6.617754 13.88605 -20.00265 -0 6.226694 -0 6.199834 -22.61238 22.83756 -1.582554 -2.473471 4.512734 2.870972 10.34496 -7.782791 1.273316 21.20703 6.772883 3.361554 -25.0742 9.082454 5.293139 -18.95119 11.98362 86.02411 33.25026 -19.44038 -0 0 14.55281 -9.587095 10.09155 4.713621 7.004856 -21.12822 -1.225093 -93.36847 22.0386 21.00919 0 0 -14.59822 13.65702 15.96771 -3.067757
1.153654 100.6483 11.19741 -0.1321409 2.298956 0.6434934 5.815417 -31.85618 5.347598 -0 20.37829 -0 -5.283278 -7.842514 -1.816735 -6.461212 14.10904 -18.60621 -0 7.133944 -0 6.117893 -23.06051 21.35782 -1.63599 -2.363322 4.426729 3.002233 10.0995 -7.897754 1.237808 20.8984 7.026323 3.438297 -25.57421 9.33426 5.337422 -18.78194 11.8457 86.39559 34.0585 -19.94379 -0 0 13.98619 -8.928805 9.844462 4.702869 7.047903 -21.15398 -1.177239 -92.73034 22.14081 20.38419 0 0 -16.40435 13.55697 15.1022 -2.514898
1.420578 99.69459 14.86054 -0.5965285 3.398487 1.099521 6.400707 -34.25083 4.604484 -0 16.68593 -0 -5.532628 -5.682191 -1.285972 -6.187112 14.2816 -17.11302 -0 8.790816 -0 5.623701 -22.922 19.39869 -1.691236 -2.24884 4.33556 3.126737 9.881748 -8.013608 1.200417 20.60905 7.255158 3.507873 -26.01161 9.545999 5.374763 -18.61254 11.71987 86.76085 34.79895 -20.41138 -0 0 13.42182 -8.386382 9.658976 4.75059 7.068934 -21.19057 -1.15134 -92.07761 22.21038 19.75347 0 0 -18.10988 13.42175 14.26052 -1.946925
1.706827 98.80404 19.25855 -1.175573 4.436789 1.673897 6.978256 -35.65303 4.021055 -0 13.88445 -0 -5.981905 -3.54287 -0.83856 -5.787494 14.37284 -15.62721 -0 11.66165 -0 4.488606 -21.99478 16.97315 -1.750744 -2.123447 4.231469 3.23907 9.710244 -8.129127 1.157591 20.36344 7.453412 3.573842 -26.34366 9.692952 5.406835 -18.42039 11.61639 87.10682 35.42651 -20.82484 -0 0 12.82811 -8.044608 9.558516 4.881205 7.06713 -21.25038 -1.157719 -91.41024 22.22615 19.09071 0 0 -19.62184 13.25099 13.47082 -1.394884
2.010055 98.12574 24.42498 -1.808985 5.155152 2.313741 7.517034 -35.57703 3.678295 -0 12.43353 -0 -6.667721 -1.641171 -0.5609697 -5.269912 14.28348 -14.26234 -0 16.3017 -0 2.711719 -20.07377 14.31616 -1.811745 -1.989651 4.114671 3.33218 9.59686 -8.240153 1.109841 20.18244 7.612293 3.636813 -26.54435 9.759914 5.441404 -18.20325 11.54375 87.41888 35.90277 -21.17823 -0 0 12.22332 -7.934121 9.548122 5.088208 7.03663 -21.32747 -1.205989 -90.78254 22.22545 18.4422 0 0 -20.83446 12.99128 12.79054 -0.8197539
2.321954 97.83234 30.2789 -2.38286 5.253624 2.912924 7.99732 -33.67181 3.624636 -0 12.56089 -0 -7.593807 -0.2561791 -0.5219309 -4.667065 13.77036 -13.10839 -0 23.13827 -0 0.5609427 -17.10341 11.88388 -1.873394 -1.84545 3.985486 3.397314 9.556407 -8.340146 1.055725 20.08932 7.724608 3.699621 -26.57969 9.726879 5.48366 -17.95375 11.51188 87.67524 36.18482 -21.45002 -0 0 11.6139 -8.113975 9.636275 5.38294 6.971802 -21.41857 -1.306672 -90.23454 22.22825 17.83678 0 0 -21.63734 12.59796 12.26393 -0.1965617
2.626007 98.08538 36.59646 -2.767585 4.557747 3.338688 8.402446 -29.93436 3.841843 -0 14.00103 -0 -8.685892 0.3311276 -0.7149222 -4.024787 12.39983 -12.17544 -0 32.09736 -0 -1.574643 -13.33579 10.15669 -1.934287 -1.690836 3.851674 3.423039 9.600171 -8.416919 0.9946623 20.10524 7.782402 3.7643 -26.42045 9.57651 5.53753 -17.67666 11.52996 87.84181 36.2336 -21.60251 -0 0 11.03264 -8.634784 9.823244 5.777466 6.863969 -21.51017 -1.467988 -89.82043 22.26638 17.33082 0 0 -21.91679 12.01274 11.93373 0.51967
2.895993 98.95163 43.0343 -2.874397 3.132103 3.485751 8.693943 -24.78842 4.2261 -0 15.87228 -0 -9.742928 -0.1081428 -1.059555 -3.373405 9.671176 -11.35445 -0 42.21259 -0 -3.40695 -9.368799 9.408076 -1.994821 -1.526442 3.730417 3.395684 9.732014 -8.451035 0.9264224 20.24551 7.778082 3.830988 -26.04385 9.295906 5.601076 -17.39029 11.60433 87.86692 36.02164 -21.56903 -0 0 10.53729 -9.54166 10.10086 6.292492 6.70282 -21.57923 -1.691508 -89.58878 22.36323 16.99075 0 0 -21.5807 11.1863 11.82156 1.37076
3.101717 100.3017 49.23381 -2.680532 1.214284 3.313367 8.80084 -18.9212 4.595338 -0 16.93591 -0 -10.45207 -1.648885 -1.471751 -2.703695 5.3595 -10.43684 -0 51.59877 -0 -4.793186 -5.978544 9.647929 -2.058383 -1.355468 3.651984 3.301489 9.938622 -8.415172 0.852125 20.51008 7.706231 3.894907 -25.44808 8.885559 5.663274 -17.13515 11.73362 87.68203 35.55229 -21.25216 -0 0 10.22211 -10.84575 10.44468 6.951399 6.477377 -21.58893 -1.965358 -89.57145 22.52897 16.8916 0 0 -20.6039 10.09298 11.90915 2.389774
3.227716 101.7999 54.97924 -2.220603 -0.9491505 2.846292 8.651165 -12.96464 4.739586 -0 16.29038 -0 -10.52839 -4.050852 -1.903621 -1.974136 -0.164732 -9.22291 -0 58.07849 -0 -5.612304 -3.793462 10.71733 -2.132498 -1.183924 3.65783 3.13118 10.18206 -8.278359 0.7746072 20.87369 7.566992 3.9439 -24.66581 8.367803 5.701888 -16.97353 11.90398 87.21483 34.87694 -20.53744 -0 0 10.20826 -12.49834 10.81115 7.772409 6.179804 -21.49239 -2.259028 -89.76027 22.74715 17.09353 0 0 -19.08311 8.75707 12.11773 3.580789
3.29618 103.0508 60.29084 -1.5966 -3.123224 2.160785 8.239017 -7.285711 4.527579 -0 14.02836 -0 -9.919348 -6.757838 -2.2787 -1.151429 -6.082422 -7.675774 -0 60.17332 -0 -5.725377 -2.973146 12.34834 -2.226868 -1.020578 3.790643 2.885691 10.40239 -8.016362 0.6984291 21.28299 7.369329 3.959156 -23.7704 7.790352 5.687807 -16.977 12.08842 86.41666 34.09528 -19.33277 -0 0 10.61268 -14.37397 11.14232 8.752648 5.810878 -21.24507 -2.525761 -90.09689 22.97408 17.61696 0 0 -17.25682 7.266968 12.31343 4.904121
3.371566 103.7845 65.36112 -0.9852968 -4.968656 1.356918 7.655971 -2.025612 3.989157 -0 11.09187 -0 -8.883836 -9.23292 -2.436778 -0.2320331 -11.70802 -5.975462 -0 57.61101 -0 -5.110222 -3.15023 14.15923 -2.34812 -0.8752002 4.076547 2.579554 10.53732 -7.625006 0.6288582 21.66967 7.131534 3.921925 -22.86135 7.216722 5.596492 -17.19847 12.25397 85.29313 33.32463 -17.62 -0 0 11.4961 -16.29144 11.38323 9.855138 5.384881 -20.82536 -2.716693 -90.48819 23.15306 18.42551 0 0 -15.44518 5.762993 12.35251 6.27401
3.533696 103.9154 70.40659 -0.565969 -6.089421 0.5202505 7.024479 2.776229 3.302776 -0 8.464283 -0 -7.808782 -11.34767 -2.244391 0.7767605 -16.76997 -4.407894 -0 51.0452 -0 -4.005329 -3.721056 15.7275 -2.494339 -0.7557649 4.509608 2.238522 10.54981 -7.127246 0.5704264 21.97591 6.877128 3.823476 -22.03225 6.705794 5.420515 -17.64466 12.37413 83.91641 32.65355 -15.48512 -0 0 12.82261 -18.07029 11.50334 11.01069 4.929469 -20.25003 -2.800409 -90.84582 23.23835 19.43408 0 0 -13.92481 4.394554 12.14702 7.579372
3.836156 103.4794 75.56594 -0.4065082 -6.289467 -0.2870334 6.388503 7.106833 2.748754 -0 6.740237 -0 -6.889772 -13.40071 -1.773946 1.822887 -21.11202 -3.239543 -0 41.67684 -0 -2.885558 -4.223607 16.7724 -2.653981 -0.6659655 5.050083 1.892292 10.44346 -6.567942 0.5260271 22.17448 6.628309 3.670956 -21.34231 6.293817 5.174063 -18.26917 12.43811 82.4096 32.11515 -13.10355 -0 0 14.46141 -19.5863 11.50704 12.13676 4.479466 -19.57222 -2.77434 -91.12119 23.21132 20.53676 0 0 -12.82691 3.271961 11.70172 8.718077
4.283852 102.5663 80.89365 -0.4248366 -5.759978 -1.014273 5.689465 10.92593 2.590551 -0 6.26144 -0 -6.023173 -15.62108 -1.281495 2.728393 -24.43245 -2.652023 -0 31.23064 -0 -2.236485 -4.519836 17.2964 -2.809799 -0.6042522 5.636701 1.567233 10.25622 -6.001056 0.4966832 22.27032 6.401859 3.485368 -20.80948 5.989985 4.887595 -18.98864 12.4514 80.91626 31.69652 -10.69538 -0 0 16.22551 -20.79097 11.42633 13.15974 4.068493 -18.86467 -2.662226 -91.31074 23.08131 21.63254 0 0 -12.12979 2.440981 11.09726 9.626138
